<svg xmlns="http://www.w3.org/2000/svg" viewBox="0 0 1067.59 366.67">
  <path d="M694.89,91.64c2.89-.92,6.23-2.38,10.2-4.46,3.75-1.97,7.7-4.28,11.73-6.89,4.06-2.63,8.12-5.6,12.05-8.81,4.01-3.28,7.67-6.78,10.86-10.4,3.28-3.73,6.02-7.63,8.13-11.59,2.38-4.46,3.58-8.94,3.58-13.3,0-3.9-1-7.38-2.97-10.34-2.45-3.67-6.54-5.69-11.52-5.69-4.1,0-7.72,1.45-10.46,4.2-2,2-3.88,4.65-5.74,8.09-1.55,2.87-3.35,6.25-5.42,10.15-1.89,3.57-4.47,7.55-7.73,11.89-3.74,5.13-7.72,9.65-11.84,13.45-3.9,3.6-7.39,6.09-10.37,7.39l-9.37,4.1,15.44,13.31,3.43-1.09Z"/>
  <path d="M1016.07,204.05l-13.05,21.82c-8.42,14.15-16.4,26.39-23.72,36.4-7.2,9.83-14.15,17.96-20.68,24.17-2.23,2.02-4.39,3.73-6.44,5.07-1.9,1.26-3.83,2.24-5.72,2.92-1.98.7-4,1.2-6,1.48-2.15.3-4.47.45-6.9.45-2.27,0-5.2-.49-8.73-1.47-3.94-1.09-8.39-2.5-13.24-4.17-4.96-1.71-10.2-3.53-15.73-5.47-5.62-1.97-11.43-3.84-17.25-5.57-5.91-1.75-11.86-3.24-17.68-4.42-5.57-1.13-10.99-1.73-16.14-1.83l150.27-155.88-11.67-17.29-5.5,4.92c-8.11,7.25-15.41,12.3-21.69,14.97-6.12,2.61-11.78,3.93-16.83,3.93s-10.42-1.01-15.26-3.02c-5.48-2.27-11.06-4.77-16.6-7.46-5.76-2.8-11.68-5.42-17.63-7.8-6.56-2.64-13.54-3.98-20.72-3.98-8.06,0-15.74,2.04-22.8,6.07-6.72,3.84-13.61,9.84-20.45,17.85-6.57,7.69-13.68,17.63-21.11,29.54-7.33,11.74-15.74,26.08-24.98,42.64l-9.08,16.1-2.63,4.82-4.04,7.15c-7.5,13.22-14.83,24.95-21.77,34.85-6.8,9.71-13.64,17.85-20.31,24.2-6.48,6.16-13.04,10.81-19.51,13.81-6.24,2.9-12.79,4.36-19.46,4.36s-11.75-1.63-14.63-4.87c-3.1-3.49-4.61-8.25-4.61-14.55,0-3.15.34-6.66,1.01-10.43.71-3.95,1.65-8.16,2.8-12.48,1.17-4.37,2.53-8.83,4.06-13.26,1.66-4.81,3.23-9.24,4.75-13.52l46.82-128.52h-39.06l-38.19,104.83-8.66,15.62c-7.38,13.31-14.64,25.08-21.56,34.96-6.8,9.71-13.64,17.86-20.31,24.21-6.46,6.14-13.03,10.76-19.54,13.69-6.32,2.86-12.91,4.31-19.6,4.31s-11.75-1.63-14.63-4.87c-3.1-3.49-4.62-8.25-4.62-14.55,0-3.15.34-6.66,1.02-10.43.71-3.95,1.65-8.16,2.8-12.48,1.16-4.36,2.53-8.82,4.06-13.26,1.62-4.67,3.23-9.23,4.76-13.52l46.81-128.52h-39.05l-6.97,19.12c-1.25-3.08-2.82-5.88-4.68-8.39-3.32-4.45-7.69-7.94-13-10.39-5.17-2.38-11.55-3.59-18.96-3.59-6.78,0-14.09,1-21.72,2.95-7.54,1.93-15.3,4.89-23.05,8.79-7.69,3.89-15.48,8.86-23.14,14.79-7.68,5.96-15.09,13.13-22.03,21.3-6.91,8.16-13.4,17.56-19.28,27.97-5.64,9.98-10.6,21.2-14.73,33.33l-8.21,14.52c-9.12,16.1-17.3,29.65-24.34,40.3-6.89,10.4-13.38,18.76-19.28,24.83-5.63,5.78-11.05,9.87-16.11,12.15-4.95,2.24-10.34,3.37-16.01,3.37-7.7,0-13.31-1.98-17.15-6.04-3.89-4.1-5.85-10.39-5.85-18.69,0-5.72.79-11.82,2.37-18.13,1.68-6.71,3.58-13.44,5.64-20.01,2.13-6.82,4.09-13.54,5.81-19.95,1.86-6.91,2.79-13.52,2.79-19.65,0-11.79-4.05-21.41-12.07-28.6-2.42-2.18-5.23-4.14-8.44-5.89,2.86-.86,5.67-1.84,8.42-2.95,11.02-4.42,20.8-10.33,29.07-17.57,8.34-7.3,15.05-15.88,19.91-25.48,4.95-9.78,7.46-20.27,7.46-31.17,0-9.33-1.97-17.88-5.85-25.39-3.91-7.54-9.68-13.95-17.16-19.06-7.22-4.91-16.07-8.71-26.29-11.28-10-2.52-21.51-3.79-34.19-3.79-18.61,0-37.25,2.86-55.43,8.51-18.1,5.63-35.68,13.85-52.25,24.44-16.51,10.56-32.23,23.56-46.73,38.64-14.49,15.07-27.55,32.32-38.82,51.26-11.17,18.73-19.79,37.66-25.62,56.25-5.88,18.75-8.86,36.94-8.86,54.08,0,51.33,29.21,62.09,53.7,62.09,13.52,0,26.54-3.11,38.7-9.25,11.98-6.05,23.57-15.33,34.45-27.59,10.68-12.03,21-27.38,30.67-45.61,9.56-18.04,18.91-39.61,27.76-64.08,5.02-13.7,9.33-25.5,12.93-35.38,3.6-9.88,6.76-18.37,9.39-25.24,2.63-6.9,4.89-12.75,6.74-17.4,1.76-4.47,3.33-8.23,4.67-11.18,2.34-5.14,3.82-7.99,6.67-12.17,3.86-5.74,8.6-10.95,14.09-15.5,4.79-3.98,9.72-7.11,14.67-9.34,14.61,4.75,21.44,14.61,21.44,30.84,0,8.29-1.56,16.49-4.61,24.39-3.1,8-7.4,15.35-12.76,21.87-5.36,6.53-11.83,12.24-19.22,16.99-2.92,1.87-5.95,3.54-9.07,4.98-.06.02-.1.05-.16.07-9.24,4.51-23.94,10.2-29.18,12.19,0,2.36,1.01,4.48,2.77,6.01,4.8.31,8.71,1.72,11.14,2.86.03,0,.06.02.07.03,1.16.44,2.3,1.07,3.42,1.91,1.88,1.4,3.56,3.15,4.98,5.18,1.45,2.1,2.61,4.47,3.44,7.03.82,2.54,1.23,5.16,1.23,7.79,0,4.28-.89,9.55-2.66,15.68-1.93,6.7-4.1,13.78-6.45,21.04-2.43,7.53-4.66,15.2-6.62,22.81-2.06,8.02-3.11,15.59-3.11,22.49,0,7.31,1.42,14.06,4.19,20.08,2.8,6.07,6.84,11.3,12.03,15.56,5.07,4.17,11.22,7.38,18.28,9.56,6.87,2.13,14.6,3.2,22.97,3.2,6.12,0,11.92-.56,17.25-1.68,5.5-1.15,10.89-3.16,16-5.97,5.04-2.77,10.05-6.53,14.89-11.2,4.69-4.5,9.68-10.26,14.82-17.12,5.05-6.75,10.52-14.9,16.26-24.21.45-.73.89-1.46,1.35-2.2,0,.37,0,.76,0,1.14,0,7.88.81,15.26,2.4,21.95,1.66,6.97,4.34,13.17,7.99,18.44,3.78,5.47,8.69,9.8,14.58,12.85,5.86,3.04,12.94,4.58,21.03,4.58,16.57,0,32.96-6.83,48.71-20.3,9.56-8.18,19.25-19.04,28.95-32.41-.02.59-.02,1.17-.02,1.74,0,7.4,1.03,14.25,3.07,20.36,2.11,6.33,5.31,11.85,9.52,16.39,4.24,4.58,9.52,8.14,15.71,10.6,6.04,2.4,13.04,3.63,20.79,3.63,9.73,0,19.05-1.87,27.7-5.57,8.52-3.64,16.93-9.29,24.97-16.79,7.82-7.29,15.75-16.62,23.57-27.72.46-.66.92-1.33,1.4-2,0,.37,0,.75,0,1.12,0,7.39,1.03,14.24,3.07,20.37,2.12,6.33,5.31,11.84,9.52,16.38,4.24,4.58,9.53,8.14,15.71,10.6,6.05,2.4,13.04,3.63,20.79,3.63,9.75,0,19.09-1.91,27.74-5.68,8.5-3.69,16.92-9.36,25.01-16.84,7.89-7.29,15.85-16.62,23.67-27.73,7.68-10.92,15.83-23.98,24.24-38.82l11.76-20.82-.22-.17,4.05-7.12c6.98-12.49,13.68-23.8,19.93-33.59,6.19-9.7,11.95-17.97,17.11-24.58,5.02-6.42,9.54-11.35,13.4-14.64,4.47-3.81,6.36-3.86,6.44-3.86.47,0,1.86.12,4.73,1.2,2.68,1.03,5.72,2.34,9.03,3.92,3.48,1.65,7.23,3.45,11.28,5.38,4.19,2.01,8.59,3.91,13.08,5.61,4.56,1.73,9.18,3.2,13.75,4.33,4.82,1.21,9.67,1.82,14.4,1.82s9.79-.59,14.66-1.76l-152.7,159.52,10.51,17.38,5.79-5.17c4.48-4.01,8.12-7.53,10.81-10.47,2.48-2.69,4.63-4.93,6.41-6.67,1.35-1.31,2.64-2.24,3.84-2.79.71-.32,2.08-.7,4.6-.7,3.72,0,7.77.48,12.01,1.46,4.52,1.03,9.25,2.36,14.07,3.94,4.92,1.62,9.97,3.41,14.98,5.3,5.2,1.97,10.45,3.81,15.6,5.49,5.24,1.71,10.49,3.15,15.6,4.28,5.34,1.18,10.48,1.78,15.26,1.78,6.03,0,11.7-.31,16.84-.9,5.35-.62,10.53-1.79,15.4-3.48,4.91-1.7,9.78-4.08,14.47-7.08,4.6-2.95,9.33-6.71,14.07-11.2,7.47-7.11,15.12-16.25,22.75-27.17,7.49-10.71,15.87-23.86,24.92-39.09l12.43-20.8-14.9-10.89ZM240.84,64.34c-11.52,10.27-21.63,22.68-30.05,36.94-1.31,2.25-2.57,4.57-3.76,6.88-1.18,2.29-2.54,5.07-4.04,8.24-1.51,3.19-3.24,7.1-5.15,11.62-1.87,4.43-4.22,10.13-6.98,16.98-2.73,6.79-6.01,14.89-9.83,24.3-3.8,9.34-8.2,20.37-13.45,33.66-5.67,14.05-11.02,26.6-15.9,37.32-4.85,10.65-9.62,20.02-14.17,27.86-4.48,7.7-8.94,14.23-13.26,19.41-4.19,5.03-8.48,9.12-12.74,12.15-4.1,2.92-8.43,5.01-12.87,6.23-4.6,1.27-9.65,1.91-14.99,1.91-8.88,0-15.62-2.97-20.6-9.1-5.24-6.43-7.89-17.33-7.89-32.41,0-16.17,2.64-33.03,7.85-50.09,5.24-17.16,13.06-34.39,23.25-51.21,10.43-17.32,22.49-33.16,35.86-47.08,13.34-13.89,27.8-25.83,42.99-35.5,15.15-9.64,31.14-17.15,47.54-22.33,14.41-4.55,29.04-7.11,43.56-7.64-5.27,3.46-10.39,7.42-15.36,11.85ZM532.61,166.92c-1.7,7.75-4.15,15.99-7.28,24.51-3.17,8.6-6.97,17.47-11.31,26.37-4.33,8.89-9.16,17.66-14.34,26.07-5.15,8.36-10.68,16.34-16.45,23.72-5.68,7.25-11.61,13.66-17.63,19.03-5.89,5.26-11.86,9.43-17.73,12.43-5.45,2.77-10.8,4.18-15.91,4.18-7.3,0-10.12-2.8-11.61-4.9-2.79-3.94-4.2-9.75-4.2-17.25s1.3-16.79,3.86-28.02c2.6-11.4,6.57-24,11.79-37.44,6.33-16.09,13.37-30.27,20.93-42.13,7.53-11.81,15.27-21.69,23-29.37,7.58-7.53,15.06-13.18,22.24-16.8,6.88-3.46,13.08-5.22,18.43-5.22,2.47,0,4.91.41,7.26,1.2,2.04.69,3.82,1.86,5.45,3.56,1.71,1.8,3.14,4.27,4.26,7.35,1.17,3.22,1.75,7.4,1.75,12.44,0,5.9-.84,12.72-2.51,20.28Z"/>
</svg>
