<?xml version="1.0" encoding="UTF-8"?>
<svg id="Capa_2" data-name="Capa 2" xmlns="http://www.w3.org/2000/svg" viewBox="0 0 355.56 121.48">
  <defs>
    <style>
      .cls-1 {
        fill: #332116;
      }
    </style>
  </defs>
  <path class="cls-1" d="M229.8,32.58c.99-.31,2.13-.81,3.49-1.53,1.29-.67,2.64-1.47,4.02-2.36,1.39-.9,2.78-1.92,4.13-3.02,1.37-1.12,2.63-2.32,3.72-3.56,1.12-1.28,2.06-2.61,2.78-3.97.81-1.53,1.23-3.06,1.23-4.56,0-1.34-.34-2.53-1.02-3.54-.84-1.26-2.24-1.95-3.95-1.95-1.4,0-2.64.5-3.58,1.44-.69.69-1.33,1.59-1.96,2.77-.53.98-1.15,2.14-1.86,3.48-.65,1.22-1.53,2.58-2.65,4.07-1.28,1.76-2.65,3.3-4.05,4.61-1.34,1.23-2.53,2.09-3.55,2.53l-3.21,1.4,5.29,4.56,1.17-.37Z"/>
  <path class="cls-1" d="M339.79,71.07l-4.47,7.47c-2.88,4.85-5.62,9.04-8.12,12.47-2.46,3.37-4.85,6.15-7.08,8.28-.76.69-1.5,1.28-2.21,1.74-.65.43-1.31.77-1.96,1-.68.24-1.37.41-2.06.51-.74.1-1.53.15-2.36.15-.78,0-1.78-.17-2.99-.5-1.35-.37-2.87-.86-4.53-1.43-1.7-.58-3.49-1.21-5.39-1.87-1.92-.67-3.91-1.32-5.91-1.91-2.02-.6-4.06-1.11-6.06-1.51-1.91-.39-3.76-.59-5.53-.63l51.46-53.38-4-5.92-1.88,1.69c-2.78,2.48-5.28,4.21-7.43,5.13-2.1.89-4.04,1.35-5.76,1.35s-3.57-.34-5.23-1.03c-1.88-.78-3.79-1.63-5.69-2.55-1.97-.96-4-1.85-6.04-2.67-2.25-.9-4.64-1.36-7.1-1.36-2.76,0-5.39.7-7.81,2.08-2.3,1.32-4.66,3.37-7,6.11-2.25,2.63-4.68,6.04-7.23,10.12-2.51,4.02-5.39,8.93-8.56,14.6l-3.11,5.51-.9,1.65-1.38,2.45c-2.57,4.53-5.08,8.54-7.45,11.93-2.33,3.33-4.67,6.11-6.96,8.29-2.22,2.11-4.47,3.7-6.68,4.73-2.14.99-4.38,1.49-6.67,1.49s-4.03-.56-5.01-1.67c-1.06-1.19-1.58-2.83-1.58-4.98,0-1.08.11-2.28.34-3.57.24-1.35.57-2.79.96-4.27.4-1.5.87-3.02,1.39-4.54.57-1.65,1.1-3.16,1.63-4.63l16.03-44.01h-13.38l-13.08,35.9-2.97,5.35c-2.53,4.56-5.01,8.59-7.38,11.97-2.33,3.33-4.67,6.12-6.96,8.29-2.21,2.1-4.46,3.68-6.69,4.69-2.16.98-4.42,1.47-6.71,1.47s-4.03-.56-5.01-1.67c-1.06-1.19-1.58-2.83-1.58-4.98,0-1.08.12-2.28.35-3.57.24-1.35.57-2.79.96-4.27.4-1.49.87-3.02,1.39-4.54.56-1.6,1.1-3.16,1.63-4.63l16.03-44.01h-13.37l-2.39,6.55c-.43-1.05-.96-2.01-1.6-2.87-1.14-1.52-2.63-2.72-4.45-3.56-1.77-.81-3.96-1.23-6.49-1.23-2.32,0-4.82.34-7.44,1.01-2.58.66-5.24,1.68-7.89,3.01-2.63,1.33-5.3,3.03-7.92,5.07-2.63,2.04-5.17,4.49-7.54,7.29-2.37,2.79-4.59,6.01-6.6,9.58-1.93,3.42-3.63,7.26-5.04,11.42l-2.81,4.97c-3.12,5.51-5.92,10.15-8.33,13.8-2.36,3.56-4.58,6.43-6.6,8.5-1.93,1.98-3.78,3.38-5.52,4.16-1.7.77-3.54,1.16-5.48,1.16-2.64,0-4.56-.68-5.87-2.07-1.33-1.4-2-3.56-2-6.4,0-1.96.27-4.05.81-6.21.57-2.3,1.23-4.6,1.93-6.85.73-2.34,1.4-4.64,1.99-6.83.64-2.37.95-4.63.95-6.73,0-4.04-1.39-7.33-4.13-9.79-.83-.75-1.79-1.42-2.89-2.02.98-.29,1.94-.63,2.88-1.01,3.77-1.51,7.12-3.54,9.96-6.02,2.86-2.5,5.15-5.44,6.82-8.72,1.7-3.35,2.55-6.94,2.55-10.67,0-3.2-.67-6.12-2-8.7-1.34-2.58-3.31-4.78-5.88-6.53-2.47-1.68-5.5-2.98-9-3.86-3.43-.86-7.36-1.3-11.71-1.3-6.37,0-12.76.98-18.98,2.91-6.2,1.93-12.22,4.74-17.89,8.37-5.65,3.62-11.04,8.07-16,13.23-4.96,5.16-9.43,11.07-13.29,17.55-3.82,6.41-6.78,12.9-8.77,19.26-2.01,6.42-3.03,12.65-3.03,18.52,0,17.58,10,21.26,18.39,21.26,4.63,0,9.09-1.07,13.25-3.17,4.1-2.07,8.07-5.25,11.8-9.45,3.66-4.12,7.19-9.38,10.5-15.62,3.28-6.18,6.48-13.56,9.51-21.94,1.72-4.69,3.2-8.73,4.43-12.11,1.23-3.38,2.31-6.29,3.21-8.64.9-2.36,1.68-4.37,2.31-5.96.6-1.53,1.14-2.82,1.6-3.83.8-1.76,1.31-2.74,2.28-4.17,1.32-1.97,2.95-3.75,4.83-5.31,1.64-1.36,3.33-2.44,5.02-3.2,5,1.63,7.34,5,7.34,10.56,0,2.84-.53,5.65-1.58,8.35-1.06,2.74-2.53,5.26-4.37,7.49-1.84,2.23-4.05,4.19-6.58,5.82-1,.64-2.04,1.21-3.11,1.7-.02,0-.04.02-.05.03-3.16,1.55-8.2,3.49-9.99,4.18,0,.81.34,1.54.95,2.06,1.64.11,2.98.59,3.81.98,0,0,.02,0,.03,0,.4.15.79.37,1.17.65.64.48,1.22,1.08,1.7,1.77.5.72.89,1.53,1.18,2.41.28.87.42,1.77.42,2.67,0,1.47-.31,3.27-.91,5.37-.66,2.3-1.4,4.72-2.21,7.2-.83,2.58-1.6,5.21-2.27,7.81-.71,2.75-1.07,5.34-1.07,7.7,0,2.5.49,4.81,1.44,6.88.96,2.08,2.34,3.87,4.12,5.33,1.74,1.43,3.84,2.53,6.26,3.28,2.35.73,5,1.09,7.87,1.09,2.1,0,4.08-.19,5.91-.57,1.88-.39,3.73-1.08,5.48-2.04,1.73-.95,3.44-2.24,5.1-3.83,1.61-1.54,3.31-3.51,5.08-5.86,1.73-2.31,3.6-5.1,5.57-8.29.15-.25.31-.5.46-.75,0,.13,0,.26,0,.39,0,2.7.28,5.23.82,7.52.57,2.39,1.49,4.51,2.74,6.31,1.3,1.87,2.98,3.36,4.99,4.4,2.01,1.04,4.43,1.57,7.2,1.57,5.68,0,11.29-2.34,16.68-6.95,3.28-2.8,6.59-6.52,9.92-11.1,0,.2,0,.4,0,.6,0,2.53.35,4.88,1.05,6.97.72,2.17,1.82,4.06,3.26,5.61,1.45,1.57,3.26,2.79,5.38,3.63,2.07.82,4.47,1.24,7.12,1.24,3.33,0,6.52-.64,9.49-1.91,2.92-1.24,5.8-3.18,8.55-5.75,2.68-2.5,5.39-5.69,8.07-9.49.16-.23.32-.46.48-.69,0,.13,0,.26,0,.38,0,2.53.35,4.88,1.05,6.98.72,2.17,1.82,4.05,3.26,5.61,1.45,1.57,3.26,2.79,5.38,3.63,2.07.82,4.47,1.24,7.12,1.24,3.34,0,6.54-.65,9.5-1.94,2.91-1.26,5.79-3.21,8.56-5.77,2.7-2.5,5.43-5.69,8.11-9.5,2.63-3.74,5.42-8.21,8.3-13.29l4.03-7.13-.08-.06,1.39-2.44c2.39-4.28,4.69-8.15,6.83-11.5,2.12-3.32,4.09-6.15,5.86-8.42,1.72-2.2,3.27-3.89,4.59-5.02,1.53-1.31,2.18-1.32,2.21-1.32.16,0,.64.04,1.62.41.92.35,1.96.8,3.09,1.34,1.19.57,2.48,1.18,3.86,1.84,1.44.69,2.94,1.34,4.48,1.92,1.56.59,3.14,1.09,4.71,1.48,1.65.41,3.31.62,4.93.62s3.35-.2,5.02-.6l-52.29,54.63,3.6,5.95,1.98-1.77c1.54-1.37,2.78-2.58,3.7-3.58.85-.92,1.59-1.69,2.2-2.28.46-.45.9-.77,1.32-.95.24-.11.71-.24,1.58-.24,1.27,0,2.66.17,4.11.5,1.55.35,3.17.81,4.82,1.35,1.69.56,3.41,1.17,5.13,1.82,1.78.67,3.58,1.31,5.34,1.88,1.79.58,3.59,1.08,5.34,1.47,1.83.41,3.59.61,5.23.61,2.07,0,4.01-.11,5.77-.31,1.83-.21,3.61-.61,5.27-1.19,1.68-.58,3.35-1.4,4.95-2.43,1.58-1.01,3.2-2.3,4.82-3.84,2.56-2.44,5.18-5.56,7.79-9.31,2.56-3.67,5.43-8.17,8.53-13.39l4.26-7.12-5.1-3.73ZM74.31,23.23c-3.95,3.52-7.41,7.77-10.29,12.65-.45.77-.88,1.56-1.29,2.36-.41.79-.87,1.74-1.38,2.82-.52,1.09-1.11,2.43-1.77,3.98-.64,1.52-1.45,3.47-2.39,5.81-.94,2.32-2.06,5.1-3.37,8.32-1.3,3.2-2.81,6.98-4.61,11.53-1.94,4.81-3.77,9.11-5.45,12.78-1.66,3.65-3.29,6.86-4.85,9.54-1.54,2.64-3.06,4.87-4.54,6.65-1.44,1.72-2.9,3.12-4.36,4.16-1.4,1-2.89,1.71-4.41,2.13-1.58.43-3.3.65-5.13.65-3.04,0-5.35-1.02-7.05-3.12-1.79-2.2-2.7-5.93-2.7-11.1,0-5.54.9-11.31,2.69-17.15,1.79-5.88,4.47-11.78,7.96-17.54,3.57-5.93,7.7-11.35,12.28-16.12,4.57-4.76,9.52-8.85,14.72-12.16,5.19-3.3,10.67-5.87,16.28-7.65,4.94-1.56,9.94-2.44,14.92-2.62-1.8,1.18-3.56,2.54-5.26,4.06ZM174.23,58.36c-.58,2.65-1.42,5.47-2.49,8.39-1.09,2.95-2.39,5.98-3.87,9.03-1.48,3.05-3.14,6.05-4.91,8.93-1.76,2.86-3.66,5.6-5.63,8.12-1.94,2.48-3.97,4.68-6.04,6.52-2.02,1.8-4.06,3.23-6.07,4.26-1.87.95-3.7,1.43-5.45,1.43-2.5,0-3.47-.96-3.98-1.68-.95-1.35-1.44-3.34-1.44-5.91s.44-5.75,1.32-9.6c.89-3.9,2.25-8.22,4.04-12.82,2.17-5.51,4.58-10.37,7.17-14.43,2.58-4.04,5.23-7.43,7.88-10.06,2.6-2.58,5.16-4.51,7.62-5.75,2.36-1.18,4.48-1.79,6.31-1.79.85,0,1.68.14,2.49.41.7.24,1.31.64,1.87,1.22.58.62,1.08,1.46,1.46,2.52.4,1.1.6,2.53.6,4.26,0,2.02-.29,4.36-.86,6.95Z"/>
</svg>